<svg width="64" height="64" viewBox="0 0 64 64" fill="none" xmlns="http://www.w3.org/2000/svg">
<path d="M32 64C14.3556 64 0 49.6444 0 32C0 14.3556 14.3556 0 32 0C49.6444 0 64 14.3556 64 32C64 49.6444 49.6444 64 32 64ZM32 2.47961C15.7194 2.47961 2.47961 15.7194 2.47961 32C2.47961 48.2806 15.7259 61.5204 32 61.5204C48.2741 61.5204 61.5204 48.2741 61.5204 32C61.5204 15.7259 48.2741 2.47961 32 2.47961Z" fill="#0098DA"/>
<path d="M45.9835 33.2399H18.0162C17.331 33.2399 16.7764 32.6852 16.7764 32.0001C16.7764 31.3149 17.331 30.7603 18.0162 30.7603H45.9901C46.6752 30.7603 47.2299 31.3149 47.2299 32.0001C47.2299 32.6852 46.6752 33.2399 45.9901 33.2399H45.9835Z" fill="#0098DA"/>
</svg>
