<svg width="25" height="25" viewBox="0 0 25 25" fill="none" xmlns="http://www.w3.org/2000/svg">
<path d="M17.7082 21.875V19.7917C17.7082 18.6866 17.2692 17.6268 16.4878 16.8454C15.7064 16.064 14.6466 15.625 13.5415 15.625H5.20817C4.1031 15.625 3.04329 16.064 2.26189 16.8454C1.48049 17.6268 1.0415 18.6866 1.0415 19.7917V21.875" stroke="#A5AAB6" stroke-width="1.5" stroke-linecap="round" stroke-linejoin="round"/>
<path d="M9.37516 11.4583C11.6763 11.4583 13.5418 9.59285 13.5418 7.29167C13.5418 4.99048 11.6763 3.125 9.37516 3.125C7.07398 3.125 5.2085 4.99048 5.2085 7.29167C5.2085 9.59285 7.07398 11.4583 9.37516 11.4583Z" stroke="#A5AAB6" stroke-width="1.5" stroke-linecap="round" stroke-linejoin="round"/>
<path d="M23.9585 21.875V19.7916C23.9578 18.8684 23.6505 17.9716 23.0849 17.242C22.5193 16.5123 21.7274 15.9912 20.8335 15.7604" stroke="#A5AAB6" stroke-width="1.5" stroke-linecap="round" stroke-linejoin="round"/>
<path d="M16.6665 3.26038C17.5628 3.48986 18.3572 4.01111 18.9245 4.74195C19.4918 5.47279 19.7997 6.37166 19.7997 7.29683C19.7997 8.22201 19.4918 9.12088 18.9245 9.85172C18.3572 10.5826 17.5628 11.1038 16.6665 11.3333" stroke="#A5AAB6" stroke-width="1.5" stroke-linecap="round" stroke-linejoin="round"/>
</svg>
