<svg width="175" height="175" viewBox="0 0 175 175" fill="none" xmlns="http://www.w3.org/2000/svg">
<path d="M0 0H175V175H0V0Z" fill="white"/>
<path d="M24.1379 27.1552H66.3793H24.1379ZM78.4483 27.1552H102.586H78.4483ZM108.621 27.1552H150.862H108.621ZM24.1379 33.1896H30.1724H24.1379ZM60.3448 33.1896H66.3793H60.3448ZM96.5517 33.1896H102.586H96.5517ZM108.621 33.1896H114.655H108.621ZM144.828 33.1896H150.862H144.828ZM24.1379 39.2241H30.1724H24.1379ZM36.2069 39.2241H54.3104H36.2069ZM60.3448 39.2241H66.3793H60.3448ZM72.4138 39.2241H78.4483H72.4138ZM84.4828 39.2241H90.5173H84.4828ZM96.5517 39.2241H102.586H96.5517ZM108.621 39.2241H114.655H108.621ZM120.69 39.2241H138.793H120.69ZM144.828 39.2241H150.862H144.828ZM24.1379 45.2586H30.1724H24.1379ZM36.2069 45.2586H54.3104H36.2069ZM60.3448 45.2586H66.3793H60.3448ZM72.4138 45.2586H78.4483H72.4138ZM84.4828 45.2586H90.5173H84.4828ZM108.621 45.2586H114.655H108.621ZM120.69 45.2586H138.793H120.69ZM144.828 45.2586H150.862H144.828ZM24.1379 51.2931H30.1724H24.1379ZM36.2069 51.2931H54.3104H36.2069ZM60.3448 51.2931H66.3793H60.3448ZM72.4138 51.2931H84.4828H72.4138ZM96.5517 51.2931H102.586H96.5517ZM108.621 51.2931H114.655H108.621ZM120.69 51.2931H138.793H120.69ZM144.828 51.2931H150.862H144.828ZM24.1379 57.3276H30.1724H24.1379ZM60.3448 57.3276H66.3793H60.3448ZM72.4138 57.3276H84.4828H72.4138ZM90.5173 57.3276H96.5517H90.5173ZM108.621 57.3276H114.655H108.621ZM144.828 57.3276H150.862H144.828ZM24.1379 63.362H66.3793H24.1379ZM72.4138 63.362H78.4483H72.4138ZM84.4828 63.362H90.5173H84.4828ZM96.5517 63.362H102.586H96.5517ZM108.621 63.362H150.862H108.621ZM72.4138 69.3965H78.4483H72.4138ZM84.4828 69.3965H90.5173H84.4828ZM24.1379 75.431H30.1724H24.1379ZM36.2069 75.431H66.3793H36.2069ZM78.4483 75.431H84.4828H78.4483ZM90.5173 75.431H96.5517H90.5173ZM108.621 75.431H138.793H108.621ZM42.2414 81.4655H48.2759H42.2414ZM72.4138 81.4655H78.4483H72.4138ZM90.5173 81.4655H114.655H90.5173ZM126.724 81.4655H138.793H126.724ZM144.828 81.4655H150.862H144.828ZM36.2069 87.5H66.3793H36.2069ZM78.4483 87.5H90.5173H78.4483ZM96.5517 87.5H102.586H96.5517ZM108.621 87.5H120.69H108.621ZM126.724 87.5H144.828H126.724ZM36.2069 93.5345H42.2414H36.2069ZM54.3104 93.5345H60.3448H54.3104ZM66.3793 93.5345H78.4483H66.3793ZM84.4828 93.5345H114.655H84.4828ZM126.724 93.5345H138.793H126.724ZM30.1724 99.5689H48.2759H30.1724ZM60.3448 99.5689H90.5173H60.3448ZM96.5517 99.5689H102.586H96.5517ZM114.655 99.5689H120.69H114.655ZM144.828 99.5689H150.862H144.828ZM72.4138 105.603H78.4483H72.4138ZM96.5517 105.603H102.586H96.5517ZM114.655 105.603H120.69H114.655ZM126.724 105.603H132.759H126.724ZM24.1379 111.638H66.3793H24.1379ZM78.4483 111.638H84.4828H78.4483ZM90.5173 111.638H96.5517H90.5173ZM102.586 111.638H108.621H102.586ZM120.69 111.638H126.724H120.69ZM132.759 111.638H144.828H132.759ZM24.1379 117.672H30.1724H24.1379ZM60.3448 117.672H66.3793H60.3448ZM72.4138 117.672H78.4483H72.4138ZM84.4828 117.672H90.5173H84.4828ZM114.655 117.672H144.828H114.655ZM24.1379 123.707H30.1724H24.1379ZM36.2069 123.707H54.3104H36.2069ZM60.3448 123.707H66.3793H60.3448ZM72.4138 123.707H78.4483H72.4138ZM90.5173 123.707H96.5517H90.5173ZM102.586 123.707H108.621H102.586ZM120.69 123.707H126.724H120.69ZM138.793 123.707H144.828H138.793ZM24.1379 129.741H30.1724H24.1379ZM36.2069 129.741H54.3104H36.2069ZM60.3448 129.741H66.3793H60.3448ZM72.4138 129.741H84.4828H72.4138ZM90.5173 129.741H120.69H90.5173ZM126.724 129.741H132.759H126.724ZM24.1379 135.776H30.1724H24.1379ZM36.2069 135.776H54.3104H36.2069ZM60.3448 135.776H66.3793H60.3448ZM72.4138 135.776H84.4828H72.4138ZM96.5517 135.776H102.586H96.5517ZM108.621 135.776H120.69H108.621ZM132.759 135.776H138.793H132.759ZM24.1379 141.81H30.1724H24.1379ZM60.3448 141.81H66.3793H60.3448ZM78.4483 141.81H84.4828H78.4483ZM90.5173 141.81H114.655H90.5173ZM120.69 141.81H138.793H120.69ZM24.1379 147.845H66.3793H24.1379ZM72.4138 147.845H84.4828H72.4138ZM96.5517 147.845H102.586H96.5517ZM120.69 147.845H126.724H120.69ZM138.793 147.845H144.828H138.793Z" fill="black"/>
<path d="M24.1379 27.1552H66.3793M78.4483 27.1552H102.586M108.621 27.1552H150.862M24.1379 33.1896H30.1724M60.3448 33.1896H66.3793M96.5517 33.1896H102.586M108.621 33.1896H114.655M144.828 33.1896H150.862M24.1379 39.2241H30.1724M36.2069 39.2241H54.3104M60.3448 39.2241H66.3793M72.4138 39.2241H78.4483M84.4828 39.2241H90.5172M96.5517 39.2241H102.586M108.621 39.2241H114.655M120.69 39.2241H138.793M144.828 39.2241H150.862M24.1379 45.2586H30.1724M36.2069 45.2586H54.3104M60.3448 45.2586H66.3793M72.4138 45.2586H78.4483M84.4828 45.2586H90.5172M108.621 45.2586H114.655M120.69 45.2586H138.793M144.828 45.2586H150.862M24.1379 51.2931H30.1724M36.2069 51.2931H54.3104M60.3448 51.2931H66.3793M72.4138 51.2931H84.4828M96.5517 51.2931H102.586M108.621 51.2931H114.655M120.69 51.2931H138.793M144.828 51.2931H150.862M24.1379 57.3276H30.1724M60.3448 57.3276H66.3793M72.4138 57.3276H84.4828M90.5172 57.3276H96.5517M108.621 57.3276H114.655M144.828 57.3276H150.862M24.1379 63.362H66.3793M72.4138 63.362H78.4483M84.4828 63.362H90.5172M96.5517 63.362H102.586M108.621 63.362H150.862M72.4138 69.3965H78.4483M84.4828 69.3965H90.5172M24.1379 75.431H30.1724M36.2069 75.431H66.3793M78.4483 75.431H84.4828M90.5172 75.431H96.5517M108.621 75.431H138.793M42.2414 81.4655H48.2759M72.4138 81.4655H78.4483M90.5172 81.4655H114.655M126.724 81.4655H138.793M144.828 81.4655H150.862M36.2069 87.5H66.3793M78.4483 87.5H90.5172M96.5517 87.5H102.586M108.621 87.5H120.69M126.724 87.5H144.828M36.2069 93.5345H42.2414M54.3104 93.5345H60.3448M66.3793 93.5345H78.4483M84.4828 93.5345H114.655M126.724 93.5345H138.793M30.1724 99.5689H48.2759M60.3448 99.5689H90.5172M96.5517 99.5689H102.586M114.655 99.5689H120.69M144.828 99.5689H150.862M72.4138 105.603H78.4483M96.5517 105.603H102.586M114.655 105.603H120.69M126.724 105.603H132.759M24.1379 111.638H66.3793M78.4483 111.638H84.4828M90.5172 111.638H96.5517M102.586 111.638H108.621M120.69 111.638H126.724M132.759 111.638H144.828M24.1379 117.672H30.1724M60.3448 117.672H66.3793M72.4138 117.672H78.4483M84.4828 117.672H90.5172M114.655 117.672H144.828M24.1379 123.707H30.1724M36.2069 123.707H54.3104M60.3448 123.707H66.3793M72.4138 123.707H78.4483M90.5172 123.707H96.5517M102.586 123.707H108.621M120.69 123.707H126.724M138.793 123.707H144.828M24.1379 129.741H30.1724M36.2069 129.741H54.3104M60.3448 129.741H66.3793M72.4138 129.741H84.4828M90.5172 129.741H120.69M126.724 129.741H132.759M24.1379 135.776H30.1724M36.2069 135.776H54.3104M60.3448 135.776H66.3793M72.4138 135.776H84.4828M96.5517 135.776H102.586M108.621 135.776H120.69M132.759 135.776H138.793M24.1379 141.81H30.1724M60.3448 141.81H66.3793M78.4483 141.81H84.4828M90.5172 141.81H114.655M120.69 141.81H138.793M24.1379 147.845H66.3793M72.4138 147.845H84.4828M96.5517 147.845H102.586M120.69 147.845H126.724M138.793 147.845H144.828" stroke="black" stroke-width="5"/>
</svg>
